<svg xmlns="http://www.w3.org/2000/svg" width="1920" height="1080"><path d="M554,1328L165,1362L958,1327Z" fill="#c2703f" stroke="#c2703f" stroke-width="1.51"/><path d="M868,-197L999,-163L1400,-170Z" fill="#ffb685" stroke="#ffb685" stroke-width="1.51"/><path d="M958,1327L165,1362L1624,1347Z" fill="#bf5c23" stroke="#bf5c23" stroke-width="1.51"/><path d="M868,-197L1400,-170L1687,-249Z" fill="#ffaa7b" stroke="#ffaa7b" stroke-width="1.51"/><path d="M599,-252L868,-197L1687,-249Z" fill="#ffba8b" stroke="#ffba8b" stroke-width="1.51"/><path d="M599,-252L1687,-249L1877,-267Z" fill="#fea97c" stroke="#fea97c" stroke-width="1.51"/><path d="M1624,1347L165,1362L1990,1359Z" fill="#b7480b" stroke="#b7480b" stroke-width="1.51"/><path d="M1737,1315L1624,1347L1990,1359Z" fill="#9b3204" stroke="#9b3204" stroke-width="1.51"/><path d="M1969,896L2015,1017L2049,794Z" fill="#b83f05" stroke="#b83f05" stroke-width="1.51"/><path d="M2015,1017L2031,1096L2049,794Z" fill="#b13a03" stroke="#b13a03" stroke-width="1.51"/><path d="M599,-252L1877,-267L2063,-284Z" fill="#faa37a" stroke="#faa37a" stroke-width="1.51"/><path d="M2049,794L2031,1096L2095,1325Z" fill="#a33403" stroke="#a33403" stroke-width="1.51"/><path d="M2080,372L1927,441L2100,600Z" fill="#c66228" stroke="#c66228" stroke-width="1.51"/><path d="M1927,441L1930,553L2100,600Z" fill="#c85f21" stroke="#c85f21" stroke-width="1.51"/><path d="M2049,794L2095,1325L2100,600Z" fill="#b33d04" stroke="#b33d04" stroke-width="1.51"/><path d="M2051,696L2049,794L2100,600Z" fill="#be4e10" stroke="#be4e10" stroke-width="1.51"/><path d="M1939,229L2080,372L2118,180Z" fill="#c77341" stroke="#c77341" stroke-width="1.51"/><path d="M2080,372L2100,600L2118,180Z" fill="#c26731" stroke="#c26731" stroke-width="1.51"/><path d="M2039,11L2118,180L2155,30Z" fill="#c57f56" stroke="#c57f56" stroke-width="1.51"/><path d="M2063,-284L2039,11L2155,30Z" fill="#c98765" stroke="#c98765" stroke-width="1.51"/><path d="M2118,180L2100,600L2155,30Z" fill="#c2703e" stroke="#c2703e" stroke-width="1.51"/><path d="M2100,600L2095,1325L2155,30Z" fill="#bd5115" stroke="#bd5115" stroke-width="1.51"/><path d="M1972,1097L1990,1359L2031,1096Z" fill="#9a3104" stroke="#9a3104" stroke-width="1.51"/><path d="M1842,-88L1889,-19L2039,11Z" fill="#d48a62" stroke="#d48a62" stroke-width="1.51"/><path d="M1842,-88L2039,11L2063,-284Z" fill="#d18c69" stroke="#d18c69" stroke-width="1.51"/><path d="M1877,-267L1842,-88L2063,-284Z" fill="#d6916f" stroke="#d6916f" stroke-width="1.51"/><path d="M2031,1096L1990,1359L2095,1325Z" fill="#912e04" stroke="#912e04" stroke-width="1.51"/><path d="M1930,553L1976,618L2100,600Z" fill="#c6591b" stroke="#c6591b" stroke-width="1.51"/><path d="M2039,11L1941,73L2118,180Z" fill="#ca8055" stroke="#ca8055" stroke-width="1.51"/><path d="M1941,73L1939,229L2118,180Z" fill="#cb7d4d" stroke="#cb7d4d" stroke-width="1.51"/><path d="M1830,-198L1842,-88L1877,-267Z" fill="#dc936f" stroke="#dc936f" stroke-width="1.51"/><path d="M1976,618L2051,696L2100,600Z" fill="#c25416" stroke="#c25416" stroke-width="1.51"/><path d="M1939,229L1927,441L2080,372Z" fill="#ca6e36" stroke="#ca6e36" stroke-width="1.51"/><path d="M1778,666L1779,832L1976,618Z" fill="#ce530f" stroke="#ce530f" stroke-width="1.51"/><path d="M1976,618L1779,832L2049,794Z" fill="#c64d0a" stroke="#c64d0a" stroke-width="1.51"/><path d="M1779,832L1969,896L2049,794Z" fill="#c04607" stroke="#c04607" stroke-width="1.51"/><path d="M1976,618L2049,794L2051,696Z" fill="#c14f10" stroke="#c14f10" stroke-width="1.51"/><path d="M1822,1077L1737,1315L1972,1097Z" fill="#a73703" stroke="#a73703" stroke-width="1.51"/><path d="M1972,1097L1737,1315L1990,1359Z" fill="#9a3104" stroke="#9a3104" stroke-width="1.51"/><path d="M2015,1017L1972,1097L2031,1096Z" fill="#a73603" stroke="#a73603" stroke-width="1.51"/><path d="M1889,-19L1941,73L2039,11Z" fill="#d0865c" stroke="#d0865c" stroke-width="1.51"/><path d="M999,-163L1118,-145L1400,-170Z" fill="#ffb17e" stroke="#ffb17e" stroke-width="1.51"/><path d="M1400,-170L1511,-184L1687,-249Z" fill="#f89f74" stroke="#f89f74" stroke-width="1.51"/><path d="M1874,1027L1972,1097L2015,1017Z" fill="#ad3803" stroke="#ad3803" stroke-width="1.51"/><path d="M1969,896L1874,1027L2015,1017Z" fill="#b63b03" stroke="#b63b03" stroke-width="1.51"/><path d="M1786,410L1927,441L1939,229Z" fill="#d17035" stroke="#d17035" stroke-width="1.51"/><path d="M1859,198L1939,229L1941,73Z" fill="#d27f4d" stroke="#d27f4d" stroke-width="1.51"/><path d="M1859,198L1786,410L1939,229Z" fill="#d47740" stroke="#d47740" stroke-width="1.51"/><path d="M1930,553L1778,666L1976,618Z" fill="#cc5a19" stroke="#cc5a19" stroke-width="1.51"/><path d="M1874,1027L1822,1077L1972,1097Z" fill="#af3903" stroke="#af3903" stroke-width="1.51"/><path d="M1779,832L1874,1027L1969,896Z" fill="#c04103" stroke="#c04103" stroke-width="1.51"/><path d="M1927,441L1786,410L1930,553Z" fill="#d06729" stroke="#d06729" stroke-width="1.51"/><path d="M1786,410L1750,568L1930,553Z" fill="#d46524" stroke="#d46524" stroke-width="1.51"/><path d="M1889,-19L1835,48L1941,73Z" fill="#d5885c" stroke="#d5885c" stroke-width="1.51"/><path d="M1835,48L1859,198L1941,73Z" fill="#d58454" stroke="#d58454" stroke-width="1.51"/><path d="M1750,568L1778,666L1930,553Z" fill="#d35e1b" stroke="#d35e1b" stroke-width="1.51"/><path d="M1081,1275L958,1327L1624,1347Z" fill="#bc4b0e" stroke="#bc4b0e" stroke-width="1.51"/><path d="M1779,832L1716,971L1874,1027Z" fill="#c64203" stroke="#c64203" stroke-width="1.51"/><path d="M1351,1249L1081,1275L1624,1347Z" fill="#ba4508" stroke="#ba4508" stroke-width="1.51"/><path d="M1634,1200L1737,1315L1822,1077Z" fill="#ad3803" stroke="#ad3803" stroke-width="1.51"/><path d="M1708,212L1786,410L1859,198Z" fill="#db7a41" stroke="#db7a41" stroke-width="1.51"/><path d="M1842,-88L1835,48L1889,-19Z" fill="#d98b61" stroke="#d98b61" stroke-width="1.51"/><path d="M1835,48L1703,111L1859,198Z" fill="#db8755" stroke="#db8755" stroke-width="1.51"/><path d="M1716,971L1822,1077L1874,1027Z" fill="#bb3d03" stroke="#bb3d03" stroke-width="1.51"/><path d="M1687,-249L1830,-198L1877,-267Z" fill="#e19673" stroke="#e19673" stroke-width="1.51"/><path d="M1708,212L1655,349L1786,410Z" fill="#df793b" stroke="#df793b" stroke-width="1.51"/><path d="M1703,111L1708,212L1859,198Z" fill="#de834e" stroke="#de834e" stroke-width="1.51"/><path d="M599,-252L767,-208L868,-197Z" fill="#ffca9f" stroke="#ffca9f" stroke-width="1.51"/><path d="M1778,666L1689,730L1779,832Z" fill="#d5540a" stroke="#d5540a" stroke-width="1.51"/><path d="M1830,-198L1687,-249L1842,-88Z" fill="#e1946f" stroke="#e1946f" stroke-width="1.51"/><path d="M1687,-249L1563,-131L1842,-88Z" fill="#e9976f" stroke="#e9976f" stroke-width="1.51"/><path d="M1703,111L1835,48L1842,-88Z" fill="#dd8b5e" stroke="#dd8b5e" stroke-width="1.51"/><path d="M1563,-131L1703,111L1842,-88Z" fill="#e79265" stroke="#e79265" stroke-width="1.51"/><path d="M1691,1029L1634,1200L1822,1077Z" fill="#b93d03" stroke="#b93d03" stroke-width="1.51"/><path d="M1716,971L1691,1029L1822,1077Z" fill="#c03f02" stroke="#c03f02" stroke-width="1.51"/><path d="M1633,791L1716,971L1779,832Z" fill="#d14a05" stroke="#d14a05" stroke-width="1.51"/><path d="M1639,489L1750,568L1786,410Z" fill="#dd6a27" stroke="#dd6a27" stroke-width="1.51"/><path d="M1655,349L1639,489L1786,410Z" fill="#e17231" stroke="#e17231" stroke-width="1.51"/><path d="M1750,568L1689,730L1778,666Z" fill="#d85b15" stroke="#d85b15" stroke-width="1.51"/><path d="M1689,730L1633,791L1779,832Z" fill="#d75108" stroke="#d75108" stroke-width="1.51"/><path d="M1563,-131L1475,19L1703,111Z" fill="#f19563" stroke="#f19563" stroke-width="1.51"/><path d="M1639,489L1689,730L1750,568Z" fill="#de631b" stroke="#de631b" stroke-width="1.51"/><path d="M1634,1200L1624,1347L1737,1315Z" fill="#aa3703" stroke="#aa3703" stroke-width="1.51"/><path d="M1521,489L1452,704L1639,489Z" fill="#ec6c20" stroke="#ec6c20" stroke-width="1.51"/><path d="M1639,489L1452,704L1689,730Z" fill="#e56217" stroke="#e56217" stroke-width="1.51"/><path d="M1703,111L1497,166L1708,212Z" fill="#e98951" stroke="#e98951" stroke-width="1.51"/><path d="M1524,1021L1691,1029L1716,971Z" fill="#cb4302" stroke="#cb4302" stroke-width="1.51"/><path d="M1633,791L1524,1021L1716,971Z" fill="#d54802" stroke="#d54802" stroke-width="1.51"/><path d="M1524,1021L1634,1200L1691,1029Z" fill="#c34002" stroke="#c34002" stroke-width="1.51"/><path d="M1497,166L1655,349L1708,212Z" fill="#ea8347" stroke="#ea8347" stroke-width="1.51"/><path d="M1475,19L1497,166L1703,111Z" fill="#f1905a" stroke="#f1905a" stroke-width="1.51"/><path d="M1452,704L1507,788L1633,791Z" fill="#e5590a" stroke="#e5590a" stroke-width="1.51"/><path d="M1507,788L1524,1021L1633,791Z" fill="#de5004" stroke="#de5004" stroke-width="1.51"/><path d="M1511,-184L1563,-131L1687,-249Z" fill="#f49c72" stroke="#f49c72" stroke-width="1.51"/><path d="M1452,704L1633,791L1689,730Z" fill="#e3580a" stroke="#e3580a" stroke-width="1.51"/><path d="M1532,419L1639,489L1655,349Z" fill="#e97531" stroke="#e97531" stroke-width="1.51"/><path d="M1441,1235L1624,1347L1634,1200Z" fill="#b43b03" stroke="#b43b03" stroke-width="1.51"/><path d="M1497,166L1532,419L1655,349Z" fill="#ee803e" stroke="#ee803e" stroke-width="1.51"/><path d="M1497,166L1389,267L1532,419Z" fill="#f28644" stroke="#f28644" stroke-width="1.51"/><path d="M1441,1235L1351,1249L1624,1347Z" fill="#b73f05" stroke="#b73f05" stroke-width="1.51"/><path d="M1524,1021L1441,1235L1634,1200Z" fill="#c14103" stroke="#c14103" stroke-width="1.51"/><path d="M1532,419L1521,489L1639,489Z" fill="#ec722b" stroke="#ec722b" stroke-width="1.51"/><path d="M1413,1070L1441,1235L1524,1021Z" fill="#c94604" stroke="#c94604" stroke-width="1.51"/><path d="M1348,613L1452,704L1521,489Z" fill="#ef6d1f" stroke="#ef6d1f" stroke-width="1.51"/><path d="M1507,788L1284,908L1524,1021Z" fill="#e15306" stroke="#e15306" stroke-width="1.51"/><path d="M1284,908L1335,1030L1524,1021Z" fill="#db5105" stroke="#db5105" stroke-width="1.51"/><path d="M1511,-184L1420,-51L1563,-131Z" fill="#f79e70" stroke="#f79e70" stroke-width="1.51"/><path d="M1420,-51L1475,19L1563,-131Z" fill="#f79c6b" stroke="#f79c6b" stroke-width="1.51"/><path d="M1246,1229L1081,1275L1351,1249Z" fill="#c24e0e" stroke="#c24e0e" stroke-width="1.51"/><path d="M1400,-170L1420,-51L1511,-184Z" fill="#f9a173" stroke="#f9a173" stroke-width="1.51"/><path d="M1335,1030L1413,1070L1524,1021Z" fill="#d34b05" stroke="#d34b05" stroke-width="1.51"/><path d="M1260,346L1521,489L1532,419Z" fill="#f27d34" stroke="#f27d34" stroke-width="1.51"/><path d="M1389,267L1260,346L1532,419Z" fill="#f3853e" stroke="#f3853e" stroke-width="1.51"/><path d="M1475,19L1363,101L1497,166Z" fill="#f5965d" stroke="#f5965d" stroke-width="1.51"/><path d="M1260,346L1225,431L1521,489Z" fill="#f58136" stroke="#f58136" stroke-width="1.51"/><path d="M1225,431L1348,613L1521,489Z" fill="#f4792b" stroke="#f4792b" stroke-width="1.51"/><path d="M1452,704L1284,908L1507,788Z" fill="#e85d0c" stroke="#e85d0c" stroke-width="1.51"/><path d="M1363,101L1389,267L1497,166Z" fill="#f69253" stroke="#f69253" stroke-width="1.51"/><path d="M1413,1070L1312,1112L1441,1235Z" fill="#c94906" stroke="#c94906" stroke-width="1.51"/><path d="M1420,-51L1363,101L1475,19Z" fill="#f89b65" stroke="#f89b65" stroke-width="1.51"/><path d="M1225,431L1239,561L1348,613Z" fill="#f77b29" stroke="#f77b29" stroke-width="1.51"/><path d="M1294,-20L1363,101L1420,-51Z" fill="#fa9f68" stroke="#fa9f68" stroke-width="1.51"/><path d="M1312,1112L1351,1249L1441,1235Z" fill="#c24807" stroke="#c24807" stroke-width="1.51"/><path d="M1348,613L1312,632L1452,704Z" fill="#f06c1b" stroke="#f06c1b" stroke-width="1.51"/><path d="M1312,632L1284,908L1452,704Z" fill="#ee6411" stroke="#ee6411" stroke-width="1.51"/><path d="M1176,712L1284,908L1312,632Z" fill="#f06913" stroke="#f06913" stroke-width="1.51"/><path d="M1400,-170L1294,-20L1420,-51Z" fill="#fba371" stroke="#fba371" stroke-width="1.51"/><path d="M1335,1030L1312,1112L1413,1070Z" fill="#d24e07" stroke="#d24e07" stroke-width="1.51"/><path d="M1363,101L1180,211L1389,267Z" fill="#f99654" stroke="#f99654" stroke-width="1.51"/><path d="M1142,-78L1294,-20L1400,-170Z" fill="#ffa874" stroke="#ffa874" stroke-width="1.51"/><path d="M1118,-145L1142,-78L1400,-170Z" fill="#ffad7a" stroke="#ffad7a" stroke-width="1.51"/><path d="M1176,712L1152,787L1284,908Z" fill="#ef6815" stroke="#ef6815" stroke-width="1.51"/><path d="M1180,211L1260,346L1389,267Z" fill="#f9914a" stroke="#f9914a" stroke-width="1.51"/><path d="M1239,561L1312,632L1348,613Z" fill="#f47422" stroke="#f47422" stroke-width="1.51"/><path d="M1312,1112L1246,1229L1351,1249Z" fill="#c64b08" stroke="#c64b08" stroke-width="1.51"/><path d="M1211,81L1180,211L1363,101Z" fill="#fc9e5f" stroke="#fc9e5f" stroke-width="1.51"/><path d="M1294,-20L1211,81L1363,101Z" fill="#fca166" stroke="#fca166" stroke-width="1.51"/><path d="M713,1294L554,1328L958,1327Z" fill="#c26730" stroke="#c26730" stroke-width="1.51"/><path d="M1123,967L1312,1112L1335,1030Z" fill="#da550a" stroke="#da550a" stroke-width="1.51"/><path d="M1284,908L1123,967L1335,1030Z" fill="#e4590b" stroke="#e4590b" stroke-width="1.51"/><path d="M1156,1178L1246,1229L1312,1112Z" fill="#ca500c" stroke="#ca500c" stroke-width="1.51"/><path d="M1123,967L1156,1178L1312,1112Z" fill="#d65710" stroke="#d65710" stroke-width="1.51"/><path d="M1239,561L1176,712L1312,632Z" fill="#f57421" stroke="#f57421" stroke-width="1.51"/><path d="M1142,-78L1211,81L1294,-20Z" fill="#ffa86f" stroke="#ffa86f" stroke-width="1.51"/><path d="M1152,787L1123,967L1284,908Z" fill="#eb6314" stroke="#eb6314" stroke-width="1.51"/><path d="M1094,624L1176,712L1239,561Z" fill="#f77926" stroke="#f77926" stroke-width="1.51"/><path d="M1225,431L1100,532L1239,561Z" fill="#f98232" stroke="#f98232" stroke-width="1.51"/><path d="M1094,354L1225,431L1260,346Z" fill="#fa8d41" stroke="#fa8d41" stroke-width="1.51"/><path d="M1180,211L1094,354L1260,346Z" fill="#fa944b" stroke="#fa944b" stroke-width="1.51"/><path d="M1065,888L1123,967L1152,787Z" fill="#ec681a" stroke="#ec681a" stroke-width="1.51"/><path d="M1156,1178L1081,1275L1246,1229Z" fill="#c65312" stroke="#c65312" stroke-width="1.51"/><path d="M1100,532L1094,624L1239,561Z" fill="#f9802e" stroke="#f9802e" stroke-width="1.51"/><path d="M1142,-78L1048,-36L1211,81Z" fill="#ffad74" stroke="#ffad74" stroke-width="1.51"/><path d="M1048,-36L1092,120L1211,81Z" fill="#ffaa6e" stroke="#ffaa6e" stroke-width="1.51"/><path d="M1092,120L1180,211L1211,81Z" fill="#fda262" stroke="#fda262" stroke-width="1.51"/><path d="M1094,354L1100,532L1225,431Z" fill="#fa8b3d" stroke="#fa8b3d" stroke-width="1.51"/><path d="M1123,967L983,1094L1156,1178Z" fill="#d85e18" stroke="#d85e18" stroke-width="1.51"/><path d="M212,-226L469,-223L599,-252Z" fill="#ffdcbd" stroke="#ffdcbd" stroke-width="1.51"/><path d="M1000,190L1094,354L1180,211Z" fill="#fd9e58" stroke="#fd9e58" stroke-width="1.51"/><path d="M1092,120L1000,190L1180,211Z" fill="#fea462" stroke="#fea462" stroke-width="1.51"/><path d="M1094,624L1152,787L1176,712Z" fill="#f57421" stroke="#f57421" stroke-width="1.51"/><path d="M1037,949L983,1094L1123,967Z" fill="#e3641b" stroke="#e3641b" stroke-width="1.51"/><path d="M1094,624L1065,888L1152,787Z" fill="#f4711f" stroke="#f4711f" stroke-width="1.51"/><path d="M983,1094L1081,1275L1156,1178Z" fill="#cc5a18" stroke="#cc5a18" stroke-width="1.51"/><path d="M865,822L1065,888L1094,624Z" fill="#f47625" stroke="#f47625" stroke-width="1.51"/><path d="M1118,-145L1048,-36L1142,-78Z" fill="#ffb27d" stroke="#ffb27d" stroke-width="1.51"/><path d="M840,664L865,822L1094,624Z" fill="#f9812f" stroke="#f9812f" stroke-width="1.51"/><path d="M1094,354L848,388L1100,532Z" fill="#fd9446" stroke="#fd9446" stroke-width="1.51"/><path d="M999,-163L1048,-36L1118,-145Z" fill="#ffb682" stroke="#ffb682" stroke-width="1.51"/><path d="M1065,888L1037,949L1123,967Z" fill="#ea661a" stroke="#ea661a" stroke-width="1.51"/><path d="M848,388L858,536L1100,532Z" fill="#fd9345" stroke="#fd9345" stroke-width="1.51"/><path d="M1048,-36L891,126L1092,120Z" fill="#ffaf73" stroke="#ffaf73" stroke-width="1.51"/><path d="M858,536L1094,624L1100,532Z" fill="#fc8837" stroke="#fc8837" stroke-width="1.51"/><path d="M983,1094L958,1327L1081,1275Z" fill="#c95c1d" stroke="#c95c1d" stroke-width="1.51"/><path d="M891,126L1000,190L1092,120Z" fill="#ffab6b" stroke="#ffab6b" stroke-width="1.51"/><path d="M858,536L840,664L1094,624Z" fill="#fb8939" stroke="#fb8939" stroke-width="1.51"/><path d="M1000,190L848,388L1094,354Z" fill="#fd9f56" stroke="#fd9f56" stroke-width="1.51"/><path d="M890,200L848,388L1000,190Z" fill="#fea662" stroke="#fea662" stroke-width="1.51"/><path d="M999,-163L943,-91L1048,-36Z" fill="#ffb885" stroke="#ffb885" stroke-width="1.51"/><path d="M943,-91L891,126L1048,-36Z" fill="#ffb67d" stroke="#ffb67d" stroke-width="1.51"/><path d="M865,822L1037,949L1065,888Z" fill="#ef6f22" stroke="#ef6f22" stroke-width="1.51"/><path d="M287,1325L165,1362L554,1328Z" fill="#c37c52" stroke="#c37c52" stroke-width="1.51"/><path d="M866,947L983,1094L1037,949Z" fill="#e66a22" stroke="#e66a22" stroke-width="1.51"/><path d="M865,822L866,947L1037,949Z" fill="#ee7227" stroke="#ee7227" stroke-width="1.51"/><path d="M853,1096L958,1327L983,1094Z" fill="#d06323" stroke="#d06323" stroke-width="1.51"/><path d="M866,947L853,1096L983,1094Z" fill="#e06b26" stroke="#e06b26" stroke-width="1.51"/><path d="M891,126L890,200L1000,190Z" fill="#ffad6c" stroke="#ffad6c" stroke-width="1.51"/><path d="M868,-197L943,-91L999,-163Z" fill="#ffbe8c" stroke="#ffbe8c" stroke-width="1.51"/><path d="M776,61L891,126L943,-91Z" fill="#ffb981" stroke="#ffb981" stroke-width="1.51"/><path d="M853,1096L713,1294L958,1327Z" fill="#ca652a" stroke="#ca652a" stroke-width="1.51"/><path d="M770,274L848,388L890,200Z" fill="#fea964" stroke="#fea964" stroke-width="1.51"/><path d="M868,-197L713,3L943,-91Z" fill="#ffc18f" stroke="#ffc18f" stroke-width="1.51"/><path d="M713,3L776,61L943,-91Z" fill="#ffbf89" stroke="#ffbf89" stroke-width="1.51"/><path d="M760,1076L713,1294L853,1096Z" fill="#d36c2f" stroke="#d36c2f" stroke-width="1.51"/><path d="M796,622L840,664L858,536Z" fill="#fc8f41" stroke="#fc8f41" stroke-width="1.51"/><path d="M840,664L698,766L865,822Z" fill="#f88437" stroke="#f88437" stroke-width="1.51"/><path d="M760,1076L853,1096L866,947Z" fill="#e16f2c" stroke="#e16f2c" stroke-width="1.51"/><path d="M767,-208L713,3L868,-197Z" fill="#ffc597" stroke="#ffc597" stroke-width="1.51"/><path d="M776,61L770,274L890,200Z" fill="#ffb374" stroke="#ffb374" stroke-width="1.51"/><path d="M776,61L890,200L891,126Z" fill="#ffb578" stroke="#ffb578" stroke-width="1.51"/><path d="M848,388L717,336L858,536Z" fill="#fe9f56" stroke="#fe9f56" stroke-width="1.51"/><path d="M717,336L688,608L858,536Z" fill="#fd9d52" stroke="#fd9d52" stroke-width="1.51"/><path d="M698,766L711,960L865,822Z" fill="#f37f37" stroke="#f37f37" stroke-width="1.51"/><path d="M711,960L760,1076L866,947Z" fill="#e77431" stroke="#e77431" stroke-width="1.51"/><path d="M865,822L711,960L866,947Z" fill="#ef7830" stroke="#ef7830" stroke-width="1.51"/><path d="M770,274L717,336L848,388Z" fill="#fea862" stroke="#fea862" stroke-width="1.51"/><path d="M688,608L796,622L858,536Z" fill="#fc9346" stroke="#fc9346" stroke-width="1.51"/><path d="M796,622L698,766L840,664Z" fill="#fa8b3e" stroke="#fa8b3e" stroke-width="1.51"/><path d="M688,608L635,677L698,766Z" fill="#fa9147" stroke="#fa9147" stroke-width="1.51"/><path d="M698,766L616,893L711,960Z" fill="#f1823d" stroke="#f1823d" stroke-width="1.51"/><path d="M568,361L688,608L717,336Z" fill="#fea660" stroke="#fea660" stroke-width="1.51"/><path d="M577,1088L713,1294L760,1076Z" fill="#d37236" stroke="#d37236" stroke-width="1.51"/><path d="M640,-31L713,3L767,-208Z" fill="#ffc799" stroke="#ffc799" stroke-width="1.51"/><path d="M596,79L559,279L770,274Z" fill="#feb97d" stroke="#feb97d" stroke-width="1.51"/><path d="M596,79L770,274L776,61Z" fill="#febb81" stroke="#febb81" stroke-width="1.51"/><path d="M688,608L698,766L796,622Z" fill="#fa8f44" stroke="#fa8f44" stroke-width="1.51"/><path d="M568,361L576,602L688,608Z" fill="#fea25a" stroke="#fea25a" stroke-width="1.51"/><path d="M632,1041L577,1088L760,1076Z" fill="#de773a" stroke="#de773a" stroke-width="1.51"/><path d="M599,-252L640,-31L767,-208Z" fill="#ffcca2" stroke="#ffcca2" stroke-width="1.51"/><path d="M559,279L717,336L770,274Z" fill="#fdb06f" stroke="#fdb06f" stroke-width="1.51"/><path d="M713,3L596,79L776,61Z" fill="#ffc18c" stroke="#ffc18c" stroke-width="1.51"/><path d="M711,960L632,1041L760,1076Z" fill="#e47837" stroke="#e47837" stroke-width="1.51"/><path d="M502,1309L287,1325L554,1328Z" fill="#c47749" stroke="#c47749" stroke-width="1.51"/><path d="M497,1141L554,1328L577,1088Z" fill="#d17842" stroke="#d17842" stroke-width="1.51"/><path d="M577,1088L554,1328L713,1294Z" fill="#cb723b" stroke="#cb723b" stroke-width="1.51"/><path d="M640,-31L596,79L713,3Z" fill="#ffc593" stroke="#ffc593" stroke-width="1.51"/><path d="M559,279L568,361L717,336Z" fill="#fdb170" stroke="#fdb170" stroke-width="1.51"/><path d="M616,893L632,1041L711,960Z" fill="#ec7d3b" stroke="#ec7d3b" stroke-width="1.51"/><path d="M635,677L483,818L698,766Z" fill="#f98f47" stroke="#f98f47" stroke-width="1.51"/><path d="M483,818L616,893L698,766Z" fill="#f58a45" stroke="#f58a45" stroke-width="1.51"/><path d="M568,361L452,500L576,602Z" fill="#feaa65" stroke="#feaa65" stroke-width="1.51"/><path d="M576,602L635,677L688,608Z" fill="#fc984f" stroke="#fc984f" stroke-width="1.51"/><path d="M497,1141L502,1309L554,1328Z" fill="#ca7644" stroke="#ca7644" stroke-width="1.51"/><path d="M469,236L559,279L596,79Z" fill="#fec088" stroke="#fec088" stroke-width="1.51"/><path d="M489,92L469,236L596,79Z" fill="#fec792" stroke="#fec792" stroke-width="1.51"/><path d="M389,1042L577,1088L616,893Z" fill="#e88246" stroke="#e88246" stroke-width="1.51"/><path d="M616,893L577,1088L632,1041Z" fill="#e67e3f" stroke="#e67e3f" stroke-width="1.51"/><path d="M503,627L483,818L635,677Z" fill="#fb9751" stroke="#fb9751" stroke-width="1.51"/><path d="M489,92L596,79L640,-31Z" fill="#ffc897" stroke="#ffc897" stroke-width="1.51"/><path d="M379,-84L489,92L640,-31Z" fill="#ffcfa3" stroke="#ffcfa3" stroke-width="1.51"/><path d="M469,-223L379,-84L640,-31Z" fill="#ffd4ae" stroke="#ffd4ae" stroke-width="1.51"/><path d="M599,-252L469,-223L640,-31Z" fill="#ffd2ab" stroke="#ffd2ab" stroke-width="1.51"/><path d="M576,602L503,627L635,677Z" fill="#fd9b54" stroke="#fd9b54" stroke-width="1.51"/><path d="M483,818L389,1042L616,893Z" fill="#f18a4c" stroke="#f18a4c" stroke-width="1.51"/><path d="M452,500L503,627L576,602Z" fill="#fea35f" stroke="#fea35f" stroke-width="1.51"/><path d="M434,344L452,500L568,361Z" fill="#ffb374" stroke="#ffb374" stroke-width="1.51"/><path d="M389,1042L497,1141L577,1088Z" fill="#de8049" stroke="#de8049" stroke-width="1.51"/><path d="M559,279L434,344L568,361Z" fill="#feb779" stroke="#feb779" stroke-width="1.51"/><path d="M469,236L434,344L559,279Z" fill="#febc81" stroke="#febc81" stroke-width="1.51"/><path d="M262,1068L287,1325L389,1042Z" fill="#d88656" stroke="#d88656" stroke-width="1.51"/><path d="M318,980L389,1042L483,818Z" fill="#f18d53" stroke="#f18d53" stroke-width="1.51"/><path d="M313,876L318,980L483,818Z" fill="#f49358" stroke="#f49358" stroke-width="1.51"/><path d="M379,-84L357,-74L489,92Z" fill="#fed5ad" stroke="#fed5ad" stroke-width="1.51"/><path d="M389,1042L287,1325L497,1141Z" fill="#d48150" stroke="#d48150" stroke-width="1.51"/><path d="M497,1141L287,1325L502,1309Z" fill="#cb7b4b" stroke="#cb7b4b" stroke-width="1.51"/><path d="M310,725L483,818L503,627Z" fill="#fc9c5a" stroke="#fc9c5a" stroke-width="1.51"/><path d="M452,500L310,725L503,627Z" fill="#fea564" stroke="#fea564" stroke-width="1.51"/><path d="M233,146L469,236L489,92Z" fill="#fdcc9a" stroke="#fdcc9a" stroke-width="1.51"/><path d="M263,507L310,725L452,500Z" fill="#ffac6e" stroke="#ffac6e" stroke-width="1.51"/><path d="M357,-74L233,146L489,92Z" fill="#fed4a9" stroke="#fed4a9" stroke-width="1.51"/><path d="M310,725L313,876L483,818Z" fill="#f8995b" stroke="#f8995b" stroke-width="1.51"/><path d="M434,344L290,386L452,500Z" fill="#ffb77b" stroke="#ffb77b" stroke-width="1.51"/><path d="M212,-226L379,-84L469,-223Z" fill="#ffdebf" stroke="#ffdebf" stroke-width="1.51"/><path d="M233,146L351,313L469,236Z" fill="#fec894" stroke="#fec894" stroke-width="1.51"/><path d="M351,313L434,344L469,236Z" fill="#febe86" stroke="#febe86" stroke-width="1.51"/><path d="M290,386L263,507L452,500Z" fill="#ffb67a" stroke="#ffb67a" stroke-width="1.51"/><path d="M212,-226L357,-74L379,-84Z" fill="#fedebe" stroke="#fedebe" stroke-width="1.51"/><path d="M351,313L290,386L434,344Z" fill="#febe85" stroke="#febe85" stroke-width="1.51"/><path d="M262,1068L170,1189L287,1325Z" fill="#d4865b" stroke="#d4865b" stroke-width="1.51"/><path d="M318,980L262,1068L389,1042Z" fill="#e78c58" stroke="#e78c58" stroke-width="1.51"/><path d="M161,-120L233,146L357,-74Z" fill="#fedbb9" stroke="#fedbb9" stroke-width="1.51"/><path d="M161,-120L81,25L233,146Z" fill="#feddbc" stroke="#feddbc" stroke-width="1.51"/><path d="M233,146L290,386L351,313Z" fill="#ffc692" stroke="#ffc692" stroke-width="1.51"/><path d="M212,-226L161,-120L357,-74Z" fill="#fee1c5" stroke="#fee1c5" stroke-width="1.51"/><path d="M233,146L120,196L290,386Z" fill="#ffcc9d" stroke="#ffcc9d" stroke-width="1.51"/><path d="M120,196L60,317L290,386Z" fill="#ffc99a" stroke="#ffc99a" stroke-width="1.51"/><path d="M197,477L263,507L290,386Z" fill="#ffba81" stroke="#ffba81" stroke-width="1.51"/><path d="M263,507L97,728L310,725Z" fill="#ffab70" stroke="#ffab70" stroke-width="1.51"/><path d="M310,725L98,798L313,876Z" fill="#fb9f65" stroke="#fb9f65" stroke-width="1.51"/><path d="M98,798L130,921L313,876Z" fill="#f89c67" stroke="#f89c67" stroke-width="1.51"/><path d="M313,876L130,921L318,980Z" fill="#f4955f" stroke="#f4955f" stroke-width="1.51"/><path d="M130,921L262,1068L318,980Z" fill="#ee925f" stroke="#ee925f" stroke-width="1.51"/><path d="M197,477L97,728L263,507Z" fill="#ffb37a" stroke="#ffb37a" stroke-width="1.51"/><path d="M97,728L98,798L310,725Z" fill="#fea46c" stroke="#fea46c" stroke-width="1.51"/><path d="M27,583L97,728L197,477Z" fill="#ffb37d" stroke="#ffb37d" stroke-width="1.51"/><path d="M170,1189L165,1362L287,1325Z" fill="#ca835b" stroke="#ca835b" stroke-width="1.51"/><path d="M60,317L197,477L290,386Z" fill="#ffc18d" stroke="#ffc18d" stroke-width="1.51"/><path d="M37,1143L170,1189L262,1068Z" fill="#db8c61" stroke="#db8c61" stroke-width="1.51"/><path d="M130,921L37,1143L262,1068Z" fill="#e79264" stroke="#e79264" stroke-width="1.51"/><path d="M59,-29L81,25L161,-120Z" fill="#fee2c7" stroke="#fee2c7" stroke-width="1.51"/><path d="M60,317L43,437L197,477Z" fill="#ffc291" stroke="#ffc291" stroke-width="1.51"/><path d="M81,25L120,196L233,146Z" fill="#fed8b2" stroke="#fed8b2" stroke-width="1.51"/><path d="M77,-217L161,-120L212,-226Z" fill="#ffe6cf" stroke="#ffe6cf" stroke-width="1.51"/><path d="M3,953L37,1143L130,921Z" fill="#ee976b" stroke="#ee976b" stroke-width="1.51"/><path d="M37,1143L165,1362L170,1189Z" fill="#d18962" stroke="#d18962" stroke-width="1.51"/><path d="M43,437L27,583L197,477Z" fill="#ffbc88" stroke="#ffbc88" stroke-width="1.51"/><path d="M81,25L6,129L120,196Z" fill="#fedbb8" stroke="#fedbb8" stroke-width="1.51"/><path d="M37,1143L-75,1322L165,1362Z" fill="#cd8967" stroke="#cd8967" stroke-width="1.51"/><path d="M77,-217L59,-29L161,-120Z" fill="#fee6ce" stroke="#fee6ce" stroke-width="1.51"/><path d="M-147,-153L-73,-149L77,-217Z" fill="#ffecd9" stroke="#ffecd9" stroke-width="1.51"/><path d="M-73,-149L59,-29L77,-217Z" fill="#fee9d3" stroke="#fee9d3" stroke-width="1.51"/><path d="M98,798L-11,860L130,921Z" fill="#f9a06f" stroke="#f9a06f" stroke-width="1.51"/><path d="M-11,860L3,953L130,921Z" fill="#f79d6e" stroke="#f79d6e" stroke-width="1.51"/><path d="M6,129L60,317L120,196Z" fill="#ffd4ac" stroke="#ffd4ac" stroke-width="1.51"/><path d="M6,129L-38,305L60,317Z" fill="#ffd2aa" stroke="#ffd2aa" stroke-width="1.51"/><path d="M27,583L-71,688L97,728Z" fill="#ffb07d" stroke="#ffb07d" stroke-width="1.51"/><path d="M-71,688L-11,860L97,728Z" fill="#ffa976" stroke="#ffa976" stroke-width="1.51"/><path d="M97,728L-11,860L98,798Z" fill="#fda572" stroke="#fda572" stroke-width="1.51"/><path d="M-38,305L43,437L60,317Z" fill="#ffc99c" stroke="#ffc99c" stroke-width="1.51"/><path d="M59,-29L6,129L81,25Z" fill="#fee0c1" stroke="#fee0c1" stroke-width="1.51"/><path d="M-134,1230L-75,1322L37,1143Z" fill="#d38e6c" stroke="#d38e6c" stroke-width="1.51"/><path d="M3,953L-118,1119L37,1143Z" fill="#e5956d" stroke="#e5956d" stroke-width="1.51"/><path d="M-146,-109L6,129L59,-29Z" fill="#fee4ca" stroke="#fee4ca" stroke-width="1.51"/><path d="M-73,-149L-146,-109L59,-29Z" fill="#ffe9d4" stroke="#ffe9d4" stroke-width="1.51"/><path d="M-146,-109L-163,150L6,129Z" fill="#ffe3c7" stroke="#ffe3c7" stroke-width="1.51"/><path d="M-118,1119L-134,1230L37,1143Z" fill="#da916d" stroke="#da916d" stroke-width="1.51"/><path d="M-38,305L-194,363L43,437Z" fill="#ffca9e" stroke="#ffca9e" stroke-width="1.51"/><path d="M-216,583L27,583L43,437Z" fill="#ffbd8b" stroke="#ffbd8b" stroke-width="1.51"/><path d="M-194,363L-216,583L43,437Z" fill="#ffc497" stroke="#ffc497" stroke-width="1.51"/><path d="M-163,150L-38,305L6,129Z" fill="#ffd8b5" stroke="#ffd8b5" stroke-width="1.51"/><path d="M-216,583L-71,688L27,583Z" fill="#ffb785" stroke="#ffb785" stroke-width="1.51"/><path d="M-71,688L-147,892L-11,860Z" fill="#fda778" stroke="#fda778" stroke-width="1.51"/><path d="M-193,1013L-118,1119L3,953Z" fill="#ec9972" stroke="#ec9972" stroke-width="1.51"/><path d="M-147,892L-193,1013L3,953Z" fill="#f79e74" stroke="#f79e74" stroke-width="1.51"/><path d="M-11,860L-147,892L3,953Z" fill="#f9a073" stroke="#f9a073" stroke-width="1.51"/><path d="M-166,702L-147,892L-71,688Z" fill="#ffac7c" stroke="#ffac7c" stroke-width="1.51"/><path d="M-216,583L-166,702L-71,688Z" fill="#ffb685" stroke="#ffb685" stroke-width="1.51"/><path d="M-163,150L-233,219L-38,305Z" fill="#ffd8b5" stroke="#ffd8b5" stroke-width="1.51"/><path d="M-233,219L-194,363L-38,305Z" fill="#ffd2ab" stroke="#ffd2ab" stroke-width="1.51"/><path d="M-147,-153L-146,-109L-73,-149Z" fill="#ffecdb" stroke="#ffecdb" stroke-width="1.51"/><path d="M-193,1013L-134,1230L-118,1119Z" fill="#e09572" stroke="#e09572" stroke-width="1.51"/><path d="M-233,219L-163,150L-146,-109Z" fill="#ffe3c8" stroke="#ffe3c8" stroke-width="1.51"/><path d="M-166,702L-193,1013L-147,892Z" fill="#fca57a" stroke="#fca57a" stroke-width="1.51"/><path d="M-147,-153L-233,219L-146,-109Z" fill="#ffe8d2" stroke="#ffe8d2" stroke-width="1.51"/><path d="M-216,583L-193,1013L-166,702Z" fill="#ffae7f" stroke="#ffae7f" stroke-width="1.51"/><path d="M-233,219L-216,583L-194,363Z" fill="#ffcca3" stroke="#ffcca3" stroke-width="1.51"/></svg>