<svg xmlns="http://www.w3.org/2000/svg" width="1920" height="1080"><path d="M2360,-460L1960,-460L2360,-60Z" fill="#a184c0" stroke="#a184c0" stroke-width="1.51"/><path d="M1960,-460L1960,-60L2360,-60Z" fill="#9f85c1" stroke="#9f85c1" stroke-width="1.51"/><path d="M2360,-60L1960,-60L2360,340Z" fill="#9176b8" stroke="#9176b8" stroke-width="1.51"/><path d="M1960,-60L1960,340L2360,340Z" fill="#8d76b8" stroke="#8d76b8" stroke-width="1.51"/><path d="M1960,1140L2360,1140L2360,740Z" fill="#63459c" stroke="#63459c" stroke-width="1.51"/><path d="M1960,740L1960,1140L2360,740Z" fill="#6c54a5" stroke="#6c54a5" stroke-width="1.51"/><path d="M2360,340L1960,340L2360,740Z" fill="#7d62ac" stroke="#7d62ac" stroke-width="1.51"/><path d="M1960,340L1960,740L2360,740Z" fill="#7961ac" stroke="#7961ac" stroke-width="1.51"/><path d="M2360,1140L1960,1140L2360,1540Z" fill="#593193" stroke="#593193" stroke-width="1.51"/><path d="M1960,1140L1960,1540L2360,1540Z" fill="#582d91" stroke="#582d91" stroke-width="1.51"/><path d="M1960,-460L1560,-460L1960,-60Z" fill="#ab98ca" stroke="#ab98ca" stroke-width="1.51"/><path d="M1560,-460L1560,-60L1960,-60Z" fill="#a99bcb" stroke="#a99bcb" stroke-width="1.51"/><path d="M1960,-60L1560,-60L1960,340Z" fill="#9b8ac2" stroke="#9b8ac2" stroke-width="1.51"/><path d="M1560,-60L1560,340L1960,340Z" fill="#978bc3" stroke="#978bc3" stroke-width="1.51"/><path d="M1960,340L1560,340L1960,740Z" fill="#8775b6" stroke="#8775b6" stroke-width="1.51"/><path d="M1560,340L1560,740L1960,740Z" fill="#8375b6" stroke="#8375b6" stroke-width="1.51"/><path d="M1960,740L1560,740L1960,1140Z" fill="#7361ac" stroke="#7361ac" stroke-width="1.51"/><path d="M1560,740L1560,1140L1960,1140Z" fill="#715faa" stroke="#715faa" stroke-width="1.51"/><path d="M1960,1140L1560,1140L1960,1540Z" fill="#64459d" stroke="#64459d" stroke-width="1.51"/><path d="M1560,1140L1560,1540L1960,1540Z" fill="#63429c" stroke="#63429c" stroke-width="1.51"/><path d="M1560,-460L1160,-460L1560,-60Z" fill="#b5afd5" stroke="#b5afd5" stroke-width="1.51"/><path d="M1160,-460L1160,-60L1560,-60Z" fill="#b4b1d5" stroke="#b4b1d5" stroke-width="1.51"/><path d="M1560,-60L1160,-60L1560,340Z" fill="#a5a0cd" stroke="#a5a0cd" stroke-width="1.51"/><path d="M1160,-60L1160,340L1560,340Z" fill="#a2a0cd" stroke="#a2a0cd" stroke-width="1.51"/><path d="M1560,340L1160,340L1560,740Z" fill="#918cc1" stroke="#918cc1" stroke-width="1.51"/><path d="M1160,340L1160,740L1560,740Z" fill="#8e8ac1" stroke="#8e8ac1" stroke-width="1.51"/><path d="M1560,740L1160,740L1560,1140Z" fill="#7e77b7" stroke="#7e77b7" stroke-width="1.51"/><path d="M1160,740L1160,1140L1560,1140Z" fill="#7d73b5" stroke="#7d73b5" stroke-width="1.51"/><path d="M1560,1140L1160,1140L1560,1540Z" fill="#705ba8" stroke="#705ba8" stroke-width="1.51"/><path d="M1160,1140L1160,1540L1560,1540Z" fill="#6f58a7" stroke="#6f58a7" stroke-width="1.51"/><path d="M1160,-60L760,-60L1160,340Z" fill="#b3b1d5" stroke="#b3b1d5" stroke-width="1.51"/><path d="M760,-60L760,340L1160,340Z" fill="#b1b0d4" stroke="#b1b0d4" stroke-width="1.51"/><path d="M1160,340L760,340L1160,740Z" fill="#9f9bc9" stroke="#9f9bc9" stroke-width="1.51"/><path d="M760,340L760,740L1160,740Z" fill="#9d99c8" stroke="#9d99c8" stroke-width="1.51"/><path d="M1160,740L760,740L1160,1140Z" fill="#8c86bf" stroke="#8c86bf" stroke-width="1.51"/><path d="M760,740L760,1140L1160,1140Z" fill="#8c82bc" stroke="#8c82bc" stroke-width="1.51"/><path d="M1160,1140L760,1140L1160,1540Z" fill="#7e6ab0" stroke="#7e6ab0" stroke-width="1.51"/><path d="M760,1140L760,1540L1160,1540Z" fill="#7f66ae" stroke="#7f66ae" stroke-width="1.51"/><path d="M760,-60L1160,-60L1160,-460Z" fill="#bebbda" stroke="#bebbda" stroke-width="1.51"/><path d="M760,-460L760,-60L1160,-460Z" fill="#c8c5df" stroke="#c8c5df" stroke-width="1.51"/><path d="M360,1540L760,1540L760,1140Z" fill="#8971b5" stroke="#8971b5" stroke-width="1.51"/><path d="M360,1140L360,1540L760,1140Z" fill="#927fbc" stroke="#927fbc" stroke-width="1.51"/><path d="M760,-460L360,-460L760,-60Z" fill="#d2d1e7" stroke="#d2d1e7" stroke-width="1.51"/><path d="M360,-460L360,-60L760,-60Z" fill="#d2d2e7" stroke="#d2d2e7" stroke-width="1.51"/><path d="M760,-60L360,-60L760,340Z" fill="#c2c2df" stroke="#c2c2df" stroke-width="1.51"/><path d="M360,-60L360,340L760,340Z" fill="#c0c1df" stroke="#c0c1df" stroke-width="1.51"/><path d="M360,1140L760,1140L760,740Z" fill="#968dc3" stroke="#968dc3" stroke-width="1.51"/><path d="M360,740L360,1140L760,740Z" fill="#a09ccb" stroke="#a09ccb" stroke-width="1.51"/><path d="M760,340L360,340L760,740Z" fill="#aeacd2" stroke="#aeacd2" stroke-width="1.51"/><path d="M360,340L360,740L760,740Z" fill="#acaad2" stroke="#acaad2" stroke-width="1.51"/><path d="M-40,-60L360,-60L360,-460Z" fill="#dcdbec" stroke="#dcdbec" stroke-width="1.51"/><path d="M-40,-460L-40,-60L360,-460Z" fill="#e5e4f1" stroke="#e5e4f1" stroke-width="1.51"/><path d="M-40,1540L360,1540L360,1140Z" fill="#987ebd" stroke="#987ebd" stroke-width="1.51"/><path d="M-40,1140L-40,1540L360,1140Z" fill="#a08bc3" stroke="#a08bc3" stroke-width="1.51"/><path d="M360,740L-40,740L360,1140Z" fill="#aaa5d0" stroke="#aaa5d0" stroke-width="1.51"/><path d="M-40,740L-40,1140L360,1140Z" fill="#a99fcd" stroke="#a99fcd" stroke-width="1.51"/><path d="M360,-60L-40,-60L360,340Z" fill="#d1d1e6" stroke="#d1d1e6" stroke-width="1.51"/><path d="M-40,-60L-40,340L360,340Z" fill="#cecee6" stroke="#cecee6" stroke-width="1.51"/><path d="M-40,740L360,740L360,340Z" fill="#b6b3d7" stroke="#b6b3d7" stroke-width="1.51"/><path d="M-40,340L-40,740L360,340Z" fill="#c1bfdc" stroke="#c1bfdc" stroke-width="1.51"/><path d="M-40,-460L-440,-460L-40,-60Z" fill="#eceaf3" stroke="#eceaf3" stroke-width="1.51"/><path d="M-440,-460L-440,-60L-40,-60Z" fill="#eae8f2" stroke="#eae8f2" stroke-width="1.51"/><path d="M-40,-60L-440,-60L-40,340Z" fill="#dcdbeb" stroke="#dcdbeb" stroke-width="1.51"/><path d="M-440,-60L-440,340L-40,340Z" fill="#d8d7ea" stroke="#d8d7ea" stroke-width="1.51"/><path d="M-40,340L-440,340L-40,740Z" fill="#c8c5df" stroke="#c8c5df" stroke-width="1.51"/><path d="M-440,340L-440,740L-40,740Z" fill="#c4c0dd" stroke="#c4c0dd" stroke-width="1.51"/><path d="M-40,740L-440,740L-40,1140Z" fill="#b5afd5" stroke="#b5afd5" stroke-width="1.51"/><path d="M-440,740L-440,1140L-40,1140Z" fill="#b3a8d1" stroke="#b3a8d1" stroke-width="1.51"/><path d="M-40,1140L-440,1140L-40,1540Z" fill="#a791c7" stroke="#a791c7" stroke-width="1.51"/><path d="M-440,1140L-440,1540L-40,1540Z" fill="#a68ac4" stroke="#a68ac4" stroke-width="1.51"/></svg>