<svg xmlns="http://www.w3.org/2000/svg" width="1920" height="1080"><path d="M311,-254L640,-221L986,-222Z" fill="#aa8757" stroke="#aa8757" stroke-width="1.51"/><path d="M708,1321L528,1344L1120,1337Z" fill="#7f9480" stroke="#7f9480" stroke-width="1.51"/><path d="M1265,1332L1120,1337L1548,1332Z" fill="#568d82" stroke="#568d82" stroke-width="1.51"/><path d="M1199,-220L1512,-180L1717,-208Z" fill="#82815f" stroke="#82815f" stroke-width="1.51"/><path d="M1719,1308L1548,1332L2059,1328Z" fill="#12645a" stroke="#12645a" stroke-width="1.51"/><path d="M1948,1274L1719,1308L2059,1328Z" fill="#025950" stroke="#025950" stroke-width="1.51"/><path d="M986,-222L1199,-220L2095,-277Z" fill="#818162" stroke="#818162" stroke-width="1.51"/><path d="M311,-254L986,-222L2095,-277Z" fill="#a08d73" stroke="#a08d73" stroke-width="1.51"/><path d="M-160,-285L311,-254L2095,-277Z" fill="#a78962" stroke="#a78962" stroke-width="1.51"/><path d="M1199,-220L1717,-208L2095,-277Z" fill="#64694c" stroke="#64694c" stroke-width="1.51"/><path d="M1717,-208L1997,-192L2095,-277Z" fill="#505133" stroke="#505133" stroke-width="1.51"/><path d="M1997,-192L2076,-49L2095,-277Z" fill="#524c2a" stroke="#524c2a" stroke-width="1.51"/><path d="M2086,1155L2059,1328L2123,980Z" fill="#085d53" stroke="#085d53" stroke-width="1.51"/><path d="M2094,770L1944,914L2123,980Z" fill="#40887d" stroke="#40887d" stroke-width="1.51"/><path d="M2064,489L1944,739L2140,680Z" fill="#739c94" stroke="#739c94" stroke-width="1.51"/><path d="M2094,770L2123,980L2140,680Z" fill="#508a7f" stroke="#508a7f" stroke-width="1.51"/><path d="M2057,134L2012,293L2141,319Z" fill="#7c8966" stroke="#7c8966" stroke-width="1.51"/><path d="M2008,468L2064,489L2141,319Z" fill="#819885" stroke="#819885" stroke-width="1.51"/><path d="M2012,293L2008,468L2141,319Z" fill="#82967e" stroke="#82967e" stroke-width="1.51"/><path d="M2076,-49L2057,134L2141,319Z" fill="#75754c" stroke="#75754c" stroke-width="1.51"/><path d="M2064,489L2140,680L2141,319Z" fill="#7e978b" stroke="#7e978b" stroke-width="1.51"/><path d="M2095,-277L2076,-49L2141,319Z" fill="#675d32" stroke="#675d32" stroke-width="1.51"/><path d="M1944,739L2094,770L2140,680Z" fill="#64968d" stroke="#64968d" stroke-width="1.51"/><path d="M2008,468L1944,739L2064,489Z" fill="#7fa29c" stroke="#7fa29c" stroke-width="1.51"/><path d="M1946,90L2057,134L2076,-49Z" fill="#746e41" stroke="#746e41" stroke-width="1.51"/><path d="M1948,1274L2059,1328L2086,1155Z" fill="#01554b" stroke="#01554b" stroke-width="1.51"/><path d="M1887,962L2086,1155L2123,980Z" fill="#1d746b" stroke="#1d746b" stroke-width="1.51"/><path d="M1944,914L1887,962L2123,980Z" fill="#34857b" stroke="#34857b" stroke-width="1.51"/><path d="M640,-221L881,-212L986,-222Z" fill="#b2916d" stroke="#b2916d" stroke-width="1.51"/><path d="M1847,510L1944,739L2008,468Z" fill="#82a9a3" stroke="#82a9a3" stroke-width="1.51"/><path d="M1887,962L1934,1213L2086,1155Z" fill="#126e66" stroke="#126e66" stroke-width="1.51"/><path d="M1934,1213L1948,1274L2086,1155Z" fill="#015d55" stroke="#015d55" stroke-width="1.51"/><path d="M1944,739L1944,914L2094,770Z" fill="#55968c" stroke="#55968c" stroke-width="1.51"/><path d="M1870,174L2012,293L2057,134Z" fill="#7f8c65" stroke="#7f8c65" stroke-width="1.51"/><path d="M1997,-192L1872,-57L2076,-49Z" fill="#625b35" stroke="#625b35" stroke-width="1.51"/><path d="M1872,-57L1946,90L2076,-49Z" fill="#706a40" stroke="#706a40" stroke-width="1.51"/><path d="M1900,345L2008,468L2012,293Z" fill="#879f88" stroke="#879f88" stroke-width="1.51"/><path d="M1946,90L1870,174L2057,134Z" fill="#7d8158" stroke="#7d8158" stroke-width="1.51"/><path d="M1847,510L1819,698L1944,739Z" fill="#7bada7" stroke="#7bada7" stroke-width="1.51"/><path d="M1870,174L1900,345L2012,293Z" fill="#859a7a" stroke="#859a7a" stroke-width="1.51"/><path d="M1900,345L1847,510L2008,468Z" fill="#89a898" stroke="#89a898" stroke-width="1.51"/><path d="M1887,962L1752,1157L1934,1213Z" fill="#1a7971" stroke="#1a7971" stroke-width="1.51"/><path d="M1830,872L1944,914L1944,739Z" fill="#519c92" stroke="#519c92" stroke-width="1.51"/><path d="M1717,-208L1872,-57L1997,-192Z" fill="#63603d" stroke="#63603d" stroke-width="1.51"/><path d="M1512,-180L1607,-180L1717,-208Z" fill="#747453" stroke="#747453" stroke-width="1.51"/><path d="M1832,-25L1837,69L1872,-57Z" fill="#7a754b" stroke="#7a754b" stroke-width="1.51"/><path d="M1770,971L1752,1157L1887,962Z" fill="#2b8b82" stroke="#2b8b82" stroke-width="1.51"/><path d="M1870,174L1776,264L1900,345Z" fill="#8ca17f" stroke="#8ca17f" stroke-width="1.51"/><path d="M1819,698L1830,872L1944,739Z" fill="#65a79e" stroke="#65a79e" stroke-width="1.51"/><path d="M1872,-57L1837,69L1946,90Z" fill="#7c774b" stroke="#7c774b" stroke-width="1.51"/><path d="M1837,69L1870,174L1946,90Z" fill="#81855b" stroke="#81855b" stroke-width="1.51"/><path d="M1934,1213L1719,1308L1948,1274Z" fill="#086359" stroke="#086359" stroke-width="1.51"/><path d="M1830,872L1887,962L1944,914Z" fill="#41958b" stroke="#41958b" stroke-width="1.51"/><path d="M1767,372L1847,510L1900,345Z" fill="#90af9c" stroke="#90af9c" stroke-width="1.51"/><path d="M1752,1157L1719,1308L1934,1213Z" fill="#116e66" stroke="#116e66" stroke-width="1.51"/><path d="M1776,264L1767,372L1900,345Z" fill="#91ab90" stroke="#91ab90" stroke-width="1.51"/><path d="M1709,1017L1752,1157L1770,971Z" fill="#2e8e86" stroke="#2e8e86" stroke-width="1.51"/><path d="M1717,-208L1832,-25L1872,-57Z" fill="#706c46" stroke="#706c46" stroke-width="1.51"/><path d="M1830,872L1770,971L1887,962Z" fill="#41978e" stroke="#41978e" stroke-width="1.51"/><path d="M1837,69L1776,264L1870,174Z" fill="#89956e" stroke="#89956e" stroke-width="1.51"/><path d="M1694,1216L1719,1308L1752,1157Z" fill="#1a766e" stroke="#1a766e" stroke-width="1.51"/><path d="M1578,585L1588,664L1819,698Z" fill="#8ec4be" stroke="#8ec4be" stroke-width="1.51"/><path d="M1819,698L1567,834L1830,872Z" fill="#68b1a9" stroke="#68b1a9" stroke-width="1.51"/><path d="M1655,66L1776,264L1837,69Z" fill="#8d966d" stroke="#8d966d" stroke-width="1.51"/><path d="M1767,372L1677,399L1847,510Z" fill="#97b8a8" stroke="#97b8a8" stroke-width="1.51"/><path d="M1578,585L1819,698L1847,510Z" fill="#8dbcb6" stroke="#8dbcb6" stroke-width="1.51"/><path d="M1677,399L1578,585L1847,510Z" fill="#9bc2b8" stroke="#9bc2b8" stroke-width="1.51"/><path d="M1717,-208L1571,-121L1832,-25Z" fill="#76734d" stroke="#76734d" stroke-width="1.51"/><path d="M1571,-121L1655,66L1832,-25Z" fill="#858259" stroke="#858259" stroke-width="1.51"/><path d="M1832,-25L1655,66L1837,69Z" fill="#858356" stroke="#858356" stroke-width="1.51"/><path d="M1588,664L1567,834L1819,698Z" fill="#80c0b8" stroke="#80c0b8" stroke-width="1.51"/><path d="M1567,834L1770,971L1830,872Z" fill="#54aaa0" stroke="#54aaa0" stroke-width="1.51"/><path d="M1655,66L1588,166L1776,264Z" fill="#97a57d" stroke="#97a57d" stroke-width="1.51"/><path d="M1607,-180L1571,-121L1717,-208Z" fill="#757552" stroke="#757552" stroke-width="1.51"/><path d="M1709,1017L1622,1068L1752,1157Z" fill="#2e8e86" stroke="#2e8e86" stroke-width="1.51"/><path d="M1567,834L1709,1017L1770,971Z" fill="#4da69d" stroke="#4da69d" stroke-width="1.51"/><path d="M1677,399L1767,372L1776,264Z" fill="#98b59c" stroke="#98b59c" stroke-width="1.51"/><path d="M1588,166L1677,399L1776,264Z" fill="#9bb494" stroke="#9bb494" stroke-width="1.51"/><path d="M1588,166L1516,248L1677,399Z" fill="#a6bd9d" stroke="#a6bd9d" stroke-width="1.51"/><path d="M1622,1068L1694,1216L1752,1157Z" fill="#25857d" stroke="#25857d" stroke-width="1.51"/><path d="M1567,834L1622,1068L1709,1017Z" fill="#4da69d" stroke="#4da69d" stroke-width="1.51"/><path d="M1694,1216L1548,1332L1719,1308Z" fill="#22756c" stroke="#22756c" stroke-width="1.51"/><path d="M1523,407L1578,585L1677,399Z" fill="#a9cdbf" stroke="#a9cdbf" stroke-width="1.51"/><path d="M1199,-220L1298,-169L1512,-180Z" fill="#968c6a" stroke="#968c6a" stroke-width="1.51"/><path d="M1567,834L1473,904L1622,1068Z" fill="#61b5ab" stroke="#61b5ab" stroke-width="1.51"/><path d="M1516,248L1523,407L1677,399Z" fill="#acc9af" stroke="#acc9af" stroke-width="1.51"/><path d="M1622,1068L1477,1176L1694,1216Z" fill="#358e85" stroke="#358e85" stroke-width="1.51"/><path d="M1477,1176L1548,1332L1694,1216Z" fill="#32847a" stroke="#32847a" stroke-width="1.51"/><path d="M1454,143L1588,166L1655,66Z" fill="#a3a97e" stroke="#a3a97e" stroke-width="1.51"/><path d="M1571,-121L1454,143L1655,66Z" fill="#9c986b" stroke="#9c986b" stroke-width="1.51"/><path d="M1483,-135L1454,143L1571,-121Z" fill="#9a9469" stroke="#9a9469" stroke-width="1.51"/><path d="M1523,407L1434,511L1578,585Z" fill="#b4d8cd" stroke="#b4d8cd" stroke-width="1.51"/><path d="M1420,942L1477,1176L1622,1068Z" fill="#4fa69d" stroke="#4fa69d" stroke-width="1.51"/><path d="M1473,904L1420,942L1622,1068Z" fill="#61b5aa" stroke="#61b5aa" stroke-width="1.51"/><path d="M1336,-9L1454,143L1483,-135Z" fill="#aaa174" stroke="#aaa174" stroke-width="1.51"/><path d="M1426,658L1567,834L1588,664Z" fill="#95d0c8" stroke="#95d0c8" stroke-width="1.51"/><path d="M1512,-180L1571,-121L1607,-180Z" fill="#7f7d59" stroke="#7f7d59" stroke-width="1.51"/><path d="M1426,658L1407,860L1567,834Z" fill="#8fd2c7" stroke="#8fd2c7" stroke-width="1.51"/><path d="M1454,143L1516,248L1588,166Z" fill="#acba91" stroke="#acba91" stroke-width="1.51"/><path d="M1578,585L1426,658L1588,664Z" fill="#a2d4cd" stroke="#a2d4cd" stroke-width="1.51"/><path d="M1434,511L1426,658L1578,585Z" fill="#b1dbd5" stroke="#b1dbd5" stroke-width="1.51"/><path d="M1512,-180L1483,-135L1571,-121Z" fill="#87835d" stroke="#87835d" stroke-width="1.51"/><path d="M1407,860L1473,904L1567,834Z" fill="#7bc8bd" stroke="#7bc8bd" stroke-width="1.51"/><path d="M1516,248L1377,240L1523,407Z" fill="#b8ceae" stroke="#b8ceae" stroke-width="1.51"/><path d="M1477,1176L1265,1332L1548,1332Z" fill="#478d82" stroke="#478d82" stroke-width="1.51"/><path d="M1420,942L1320,1129L1477,1176Z" fill="#5daca3" stroke="#5daca3" stroke-width="1.51"/><path d="M1329,391L1434,511L1523,407Z" fill="#c0decc" stroke="#c0decc" stroke-width="1.51"/><path d="M1377,240L1329,391L1523,407Z" fill="#c2d9be" stroke="#c2d9be" stroke-width="1.51"/><path d="M1313,991L1320,1129L1420,942Z" fill="#6ebab0" stroke="#6ebab0" stroke-width="1.51"/><path d="M1298,-169L1483,-135L1512,-180Z" fill="#8f8965" stroke="#8f8965" stroke-width="1.51"/><path d="M1454,143L1377,240L1516,248Z" fill="#b6c79e" stroke="#b6c79e" stroke-width="1.51"/><path d="M1320,1129L1265,1332L1477,1176Z" fill="#579b92" stroke="#579b92" stroke-width="1.51"/><path d="M1298,-169L1336,-9L1483,-135Z" fill="#a1946c" stroke="#a1946c" stroke-width="1.51"/><path d="M1287,667L1407,860L1426,658Z" fill="#a9ded5" stroke="#a9ded5" stroke-width="1.51"/><path d="M1407,860L1420,942L1473,904Z" fill="#7ac8bc" stroke="#7ac8bc" stroke-width="1.51"/><path d="M1284,585L1426,658L1434,511Z" fill="#bfe3dd" stroke="#bfe3dd" stroke-width="1.51"/><path d="M1272,76L1377,240L1454,143Z" fill="#bec197" stroke="#bec197" stroke-width="1.51"/><path d="M1336,-9L1272,76L1454,143Z" fill="#bab184" stroke="#bab184" stroke-width="1.51"/><path d="M1329,391L1284,585L1434,511Z" fill="#cae5db" stroke="#cae5db" stroke-width="1.51"/><path d="M1284,585L1287,667L1426,658Z" fill="#bee5de" stroke="#bee5de" stroke-width="1.51"/><path d="M1407,860L1313,991L1420,942Z" fill="#7dc6bc" stroke="#7dc6bc" stroke-width="1.51"/><path d="M1230,545L1284,585L1329,391Z" fill="#d4e9e2" stroke="#d4e9e2" stroke-width="1.51"/><path d="M1116,854L1313,991L1407,860Z" fill="#92d1c8" stroke="#92d1c8" stroke-width="1.51"/><path d="M1287,667L1116,854L1407,860Z" fill="#abded6" stroke="#abded6" stroke-width="1.51"/><path d="M1224,1144L1265,1332L1320,1129Z" fill="#64a29a" stroke="#64a29a" stroke-width="1.51"/><path d="M1180,248L1329,391L1377,240Z" fill="#cfdabc" stroke="#cfdabc" stroke-width="1.51"/><path d="M1272,76L1180,248L1377,240Z" fill="#cccda5" stroke="#cccda5" stroke-width="1.51"/><path d="M1097,723L1116,854L1287,667Z" fill="#c2e7e1" stroke="#c2e7e1" stroke-width="1.51"/><path d="M1125,-74L1195,34L1298,-169Z" fill="#baa27b" stroke="#baa27b" stroke-width="1.51"/><path d="M1116,854L1128,964L1313,991Z" fill="#99d1c9" stroke="#99d1c9" stroke-width="1.51"/><path d="M1313,991L1224,1144L1320,1129Z" fill="#6fb3aa" stroke="#6fb3aa" stroke-width="1.51"/><path d="M1129,411L1230,545L1329,391Z" fill="#dceadd" stroke="#dceadd" stroke-width="1.51"/><path d="M1180,248L1129,411L1329,391Z" fill="#dde5ce" stroke="#dde5ce" stroke-width="1.51"/><path d="M1298,-169L1195,34L1336,-9Z" fill="#b5a279" stroke="#b5a279" stroke-width="1.51"/><path d="M1195,34L1272,76L1336,-9Z" fill="#c2af83" stroke="#c2af83" stroke-width="1.51"/><path d="M1128,964L1224,1144L1313,991Z" fill="#80bfb8" stroke="#80bfb8" stroke-width="1.51"/><path d="M1182,632L1097,723L1287,667Z" fill="#cdece7" stroke="#cdece7" stroke-width="1.51"/><path d="M-160,-285L-43,-259L311,-254Z" fill="#76460b" stroke="#76460b" stroke-width="1.51"/><path d="M1224,1144L1086,1244L1265,1332Z" fill="#6da099" stroke="#6da099" stroke-width="1.51"/><path d="M1284,585L1182,632L1287,667Z" fill="#cbeae4" stroke="#cbeae4" stroke-width="1.51"/><path d="M1199,-220L1125,-74L1298,-169Z" fill="#ac9674" stroke="#ac9674" stroke-width="1.51"/><path d="M1086,1244L1120,1337L1265,1332Z" fill="#6c988f" stroke="#6c988f" stroke-width="1.51"/><path d="M1195,34L1180,248L1272,76Z" fill="#d0c399" stroke="#d0c399" stroke-width="1.51"/><path d="M1230,545L1182,632L1284,585Z" fill="#d3ece8" stroke="#d3ece8" stroke-width="1.51"/><path d="M1082,15L1180,248L1195,34Z" fill="#d4c097" stroke="#d4c097" stroke-width="1.51"/><path d="M1128,964L1023,1104L1224,1144Z" fill="#86bcb6" stroke="#86bcb6" stroke-width="1.51"/><path d="M1051,562L1182,632L1230,545Z" fill="#ddefec" stroke="#ddefec" stroke-width="1.51"/><path d="M1129,411L1051,562L1230,545Z" fill="#e5f0ea" stroke="#e5f0ea" stroke-width="1.51"/><path d="M1023,1104L1086,1244L1224,1144Z" fill="#7cada7" stroke="#7cada7" stroke-width="1.51"/><path d="M886,1245L708,1321L1120,1337Z" fill="#809c90" stroke="#809c90" stroke-width="1.51"/><path d="M1082,15L1003,274L1180,248Z" fill="#dfd2ac" stroke="#dfd2ac" stroke-width="1.51"/><path d="M1030,333L1129,411L1180,248Z" fill="#e6e6cd" stroke="#e6e6cd" stroke-width="1.51"/><path d="M1125,-74L1082,15L1195,34Z" fill="#caad84" stroke="#caad84" stroke-width="1.51"/><path d="M986,-222L1125,-74L1199,-220Z" fill="#b19777" stroke="#b19777" stroke-width="1.51"/><path d="M1097,723L1054,774L1116,854Z" fill="#c2e6e0" stroke="#c2e6e0" stroke-width="1.51"/><path d="M1003,274L1030,333L1180,248Z" fill="#e7e1c5" stroke="#e7e1c5" stroke-width="1.51"/><path d="M1051,562L1097,723L1182,632Z" fill="#daeeeb" stroke="#daeeeb" stroke-width="1.51"/><path d="M874,101L1003,274L1082,15Z" fill="#e5caa4" stroke="#e5caa4" stroke-width="1.51"/><path d="M986,-222L992,-93L1125,-74Z" fill="#bf9d7b" stroke="#bf9d7b" stroke-width="1.51"/><path d="M1116,854L1012,917L1128,964Z" fill="#a7d7d0" stroke="#a7d7d0" stroke-width="1.51"/><path d="M1012,917L1023,1104L1128,964Z" fill="#9acac4" stroke="#9acac4" stroke-width="1.51"/><path d="M1030,333L1051,562L1129,411Z" fill="#ecefe2" stroke="#ecefe2" stroke-width="1.51"/><path d="M992,-93L1082,15L1125,-74Z" fill="#c9a882" stroke="#c9a882" stroke-width="1.51"/><path d="M1012,917L943,1053L1023,1104Z" fill="#9ac7c1" stroke="#9ac7c1" stroke-width="1.51"/><path d="M1086,1244L886,1245L1120,1337Z" fill="#7b9f98" stroke="#7b9f98" stroke-width="1.51"/><path d="M1030,333L954,572L1051,562Z" fill="#f1f2ec" stroke="#f1f2ec" stroke-width="1.51"/><path d="M1051,562L954,572L1097,723Z" fill="#e3f1ee" stroke="#e3f1ee" stroke-width="1.51"/><path d="M1054,774L1012,917L1116,854Z" fill="#b7e1da" stroke="#b7e1da" stroke-width="1.51"/><path d="M954,572L1054,774L1097,723Z" fill="#d9efeb" stroke="#d9efeb" stroke-width="1.51"/><path d="M1023,1104L886,1245L1086,1244Z" fill="#84aba5" stroke="#84aba5" stroke-width="1.51"/><path d="M992,-93L874,101L1082,15Z" fill="#d9b38b" stroke="#d9b38b" stroke-width="1.51"/><path d="M836,332L954,572L1030,333Z" fill="#f6efdf" stroke="#f6efdf" stroke-width="1.51"/><path d="M954,572L826,685L1054,774Z" fill="#e2f0ed" stroke="#e2f0ed" stroke-width="1.51"/><path d="M826,685L916,821L1054,774Z" fill="#d3eae4" stroke="#d3eae4" stroke-width="1.51"/><path d="M916,821L1012,917L1054,774Z" fill="#c0e3dd" stroke="#c0e3dd" stroke-width="1.51"/><path d="M810,-23L874,101L992,-93Z" fill="#d8b084" stroke="#d8b084" stroke-width="1.51"/><path d="M874,101L831,183L1003,274Z" fill="#ebd5ac" stroke="#ebd5ac" stroke-width="1.51"/><path d="M943,1053L886,1245L1023,1104Z" fill="#8fb5b0" stroke="#8fb5b0" stroke-width="1.51"/><path d="M1003,274L836,332L1030,333Z" fill="#f3e7ce" stroke="#f3e7ce" stroke-width="1.51"/><path d="M816,1124L886,1245L943,1053Z" fill="#8fb3a8" stroke="#8fb3a8" stroke-width="1.51"/><path d="M916,821L785,875L943,1053Z" fill="#b4d8cc" stroke="#b4d8cc" stroke-width="1.51"/><path d="M986,-222L881,-212L992,-93Z" fill="#bc997b" stroke="#bc997b" stroke-width="1.51"/><path d="M916,821L943,1053L1012,917Z" fill="#b0d7d0" stroke="#b0d7d0" stroke-width="1.51"/><path d="M836,332L762,554L954,572Z" fill="#f6f0e1" stroke="#f6f0e1" stroke-width="1.51"/><path d="M831,183L836,332L1003,274Z" fill="#f0dfbc" stroke="#f0dfbc" stroke-width="1.51"/><path d="M640,-221L734,-185L881,-212Z" fill="#b49066" stroke="#b49066" stroke-width="1.51"/><path d="M881,-212L810,-23L992,-93Z" fill="#c89f78" stroke="#c89f78" stroke-width="1.51"/><path d="M785,875L816,1124L943,1053Z" fill="#a1c6b8" stroke="#a1c6b8" stroke-width="1.51"/><path d="M762,554L826,685L954,572Z" fill="#edf0e6" stroke="#edf0e6" stroke-width="1.51"/><path d="M785,875L733,1101L816,1124Z" fill="#9ec1ae" stroke="#9ec1ae" stroke-width="1.51"/><path d="M696,437L762,554L836,332Z" fill="#f6ebd1" stroke="#f6ebd1" stroke-width="1.51"/><path d="M734,-185L810,-23L881,-212Z" fill="#c19a6e" stroke="#c19a6e" stroke-width="1.51"/><path d="M826,685L785,875L916,821Z" fill="#cee5d7" stroke="#cee5d7" stroke-width="1.51"/><path d="M673,984L733,1101L785,875Z" fill="#a8c8b1" stroke="#a8c8b1" stroke-width="1.51"/><path d="M734,-185L711,-100L810,-23Z" fill="#c79d6b" stroke="#c79d6b" stroke-width="1.51"/><path d="M831,183L772,201L836,332Z" fill="#eddaaf" stroke="#eddaaf" stroke-width="1.51"/><path d="M816,1124L708,1321L886,1245Z" fill="#87a392" stroke="#87a392" stroke-width="1.51"/><path d="M311,-254L406,-211L640,-221Z" fill="#a1783c" stroke="#a1783c" stroke-width="1.51"/><path d="M668,763L785,875L826,685Z" fill="#d2e4d1" stroke="#d2e4d1" stroke-width="1.51"/><path d="M810,-23L678,63L874,101Z" fill="#deb67f" stroke="#deb67f" stroke-width="1.51"/><path d="M772,201L831,183L874,101Z" fill="#e8ce9f" stroke="#e8ce9f" stroke-width="1.51"/><path d="M678,63L772,201L874,101Z" fill="#e5c490" stroke="#e5c490" stroke-width="1.51"/><path d="M733,1101L708,1321L816,1124Z" fill="#8ca995" stroke="#8ca995" stroke-width="1.51"/><path d="M772,201L650,246L836,332Z" fill="#eedbae" stroke="#eedbae" stroke-width="1.51"/><path d="M650,246L696,437L836,332Z" fill="#f4e3bc" stroke="#f4e3bc" stroke-width="1.51"/><path d="M762,554L668,763L826,685Z" fill="#e5ecda" stroke="#e5ecda" stroke-width="1.51"/><path d="M711,-100L678,63L810,-23Z" fill="#d4aa72" stroke="#d4aa72" stroke-width="1.51"/><path d="M559,1173L708,1321L733,1101Z" fill="#88a187" stroke="#88a187" stroke-width="1.51"/><path d="M637,878L673,984L785,875Z" fill="#b6d2b9" stroke="#b6d2b9" stroke-width="1.51"/><path d="M668,763L637,878L785,875Z" fill="#c5dcc2" stroke="#c5dcc2" stroke-width="1.51"/><path d="M650,246L579,338L696,437Z" fill="#f1ddb0" stroke="#f1ddb0" stroke-width="1.51"/><path d="M514,643L668,763L762,554Z" fill="#e5e5cc" stroke="#e5e5cc" stroke-width="1.51"/><path d="M678,63L650,246L772,201Z" fill="#e7cb93" stroke="#e7cb93" stroke-width="1.51"/><path d="M562,483L514,643L762,554Z" fill="#efe5cb" stroke="#efe5cb" stroke-width="1.51"/><path d="M696,437L562,483L762,554Z" fill="#f4e8cd" stroke="#f4e8cd" stroke-width="1.51"/><path d="M568,150L650,246L678,63Z" fill="#e2c285" stroke="#e2c285" stroke-width="1.51"/><path d="M585,-30L678,63L711,-100Z" fill="#d0a468" stroke="#d0a468" stroke-width="1.51"/><path d="M673,984L621,979L733,1101Z" fill="#a0bea5" stroke="#a0bea5" stroke-width="1.51"/><path d="M640,-221L711,-100L734,-185Z" fill="#ba9261" stroke="#ba9261" stroke-width="1.51"/><path d="M621,979L559,1173L733,1101Z" fill="#96b195" stroke="#96b195" stroke-width="1.51"/><path d="M559,1173L528,1344L708,1321Z" fill="#809172" stroke="#809172" stroke-width="1.51"/><path d="M640,-221L585,-30L711,-100Z" fill="#c0955c" stroke="#c0955c" stroke-width="1.51"/><path d="M637,878L621,979L673,984Z" fill="#aec8ab" stroke="#aec8ab" stroke-width="1.51"/><path d="M579,338L562,483L696,437Z" fill="#f1e1b9" stroke="#f1e1b9" stroke-width="1.51"/><path d="M281,1253L84,1296L528,1344Z" fill="#746f43" stroke="#746f43" stroke-width="1.51"/><path d="M502,1215L528,1344L559,1173Z" fill="#80916e" stroke="#80916e" stroke-width="1.51"/><path d="M499,1036L559,1173L621,979Z" fill="#97af8e" stroke="#97af8e" stroke-width="1.51"/><path d="M585,-30L568,150L678,63Z" fill="#d9ae6c" stroke="#d9ae6c" stroke-width="1.51"/><path d="M443,-103L585,-30L640,-221Z" fill="#bc8e4f" stroke="#bc8e4f" stroke-width="1.51"/><path d="M470,885L637,878L668,763Z" fill="#c1d3b2" stroke="#c1d3b2" stroke-width="1.51"/><path d="M514,643L470,885L668,763Z" fill="#cfd7b5" stroke="#cfd7b5" stroke-width="1.51"/><path d="M568,150L579,338L650,246Z" fill="#e8cf95" stroke="#e8cf95" stroke-width="1.51"/><path d="M470,885L621,979L637,878Z" fill="#b2c8a6" stroke="#b2c8a6" stroke-width="1.51"/><path d="M406,-211L443,-103L640,-221Z" fill="#ad8345" stroke="#ad8345" stroke-width="1.51"/><path d="M43,1281L-196,1236L84,1296Z" fill="#5a522f" stroke="#5a522f" stroke-width="1.51"/><path d="M568,150L432,296L579,338Z" fill="#e6cb8e" stroke="#e6cb8e" stroke-width="1.51"/><path d="M438,22L568,150L585,-30Z" fill="#d3a65d" stroke="#d3a65d" stroke-width="1.51"/><path d="M470,885L499,1036L621,979Z" fill="#a6bc98" stroke="#a6bc98" stroke-width="1.51"/><path d="M421,395L562,483L579,338Z" fill="#edd9aa" stroke="#edd9aa" stroke-width="1.51"/><path d="M443,-103L438,22L585,-30Z" fill="#c4954e" stroke="#c4954e" stroke-width="1.51"/><path d="M369,542L514,643L562,483Z" fill="#eadbb7" stroke="#eadbb7" stroke-width="1.51"/><path d="M432,296L421,395L579,338Z" fill="#e9d198" stroke="#e9d198" stroke-width="1.51"/><path d="M499,1036L502,1215L559,1173Z" fill="#8b9f7c" stroke="#8b9f7c" stroke-width="1.51"/><path d="M438,22L313,160L568,150Z" fill="#d4a95e" stroke="#d4a95e" stroke-width="1.51"/><path d="M313,160L432,296L568,150Z" fill="#dcba74" stroke="#dcba74" stroke-width="1.51"/><path d="M362,626L470,885L514,643Z" fill="#d4d0aa" stroke="#d4d0aa" stroke-width="1.51"/><path d="M421,395L369,542L562,483Z" fill="#ebd5a9" stroke="#ebd5a9" stroke-width="1.51"/><path d="M362,626L337,637L470,885Z" fill="#d1c8a0" stroke="#d1c8a0" stroke-width="1.51"/><path d="M337,637L260,788L470,885Z" fill="#c6bf95" stroke="#c6bf95" stroke-width="1.51"/><path d="M499,1036L378,1189L502,1215Z" fill="#899972" stroke="#899972" stroke-width="1.51"/><path d="M369,542L362,626L514,643Z" fill="#e2d0aa" stroke="#e2d0aa" stroke-width="1.51"/><path d="M502,1215L378,1189L528,1344Z" fill="#7e8b65" stroke="#7e8b65" stroke-width="1.51"/><path d="M378,1189L281,1253L528,1344Z" fill="#7b8057" stroke="#7b8057" stroke-width="1.51"/><path d="M470,885L354,1025L499,1036Z" fill="#a0b088" stroke="#a0b088" stroke-width="1.51"/><path d="M354,1025L378,1189L499,1036Z" fill="#8f9c74" stroke="#8f9c74" stroke-width="1.51"/><path d="M341,474L369,542L421,395Z" fill="#e7ca9d" stroke="#e7ca9d" stroke-width="1.51"/><path d="M-43,-259L160,-211L311,-254Z" fill="#855213" stroke="#855213" stroke-width="1.51"/><path d="M325,-29L438,22L443,-103Z" fill="#bf8a40" stroke="#bf8a40" stroke-width="1.51"/><path d="M260,788L354,1025L470,885Z" fill="#aeb388" stroke="#aeb388" stroke-width="1.51"/><path d="M260,788L201,848L354,1025Z" fill="#ada97b" stroke="#ada97b" stroke-width="1.51"/><path d="M325,-29L313,160L438,22Z" fill="#c89243" stroke="#c89243" stroke-width="1.51"/><path d="M406,-211L325,-29L443,-103Z" fill="#b17e37" stroke="#b17e37" stroke-width="1.51"/><path d="M313,160L258,174L432,296Z" fill="#d6ae65" stroke="#d6ae65" stroke-width="1.51"/><path d="M222,460L421,395L432,296Z" fill="#e5c48d" stroke="#e5c48d" stroke-width="1.51"/><path d="M258,174L222,460L432,296Z" fill="#dcb575" stroke="#dcb575" stroke-width="1.51"/><path d="M139,273L222,460L258,174Z" fill="#d4a866" stroke="#d4a866" stroke-width="1.51"/><path d="M311,-254L325,-29L406,-211Z" fill="#a5722e" stroke="#a5722e" stroke-width="1.51"/><path d="M222,460L341,474L421,395Z" fill="#e4c291" stroke="#e4c291" stroke-width="1.51"/><path d="M354,1025L212,1127L378,1189Z" fill="#888b61" stroke="#888b61" stroke-width="1.51"/><path d="M311,-254L160,-211L325,-29Z" fill="#9f6720" stroke="#9f6720" stroke-width="1.51"/><path d="M337,637L362,626L369,542Z" fill="#dfc8a0" stroke="#dfc8a0" stroke-width="1.51"/><path d="M212,1127L281,1253L378,1189Z" fill="#7d7d52" stroke="#7d7d52" stroke-width="1.51"/><path d="M196,138L313,160L325,-29Z" fill="#c78e3f" stroke="#c78e3f" stroke-width="1.51"/><path d="M341,474L222,460L369,542Z" fill="#e4c194" stroke="#e4c194" stroke-width="1.51"/><path d="M222,460L337,637L369,542Z" fill="#e3c39b" stroke="#e3c39b" stroke-width="1.51"/><path d="M160,-211L121,-113L325,-29Z" fill="#a2651a" stroke="#a2651a" stroke-width="1.51"/><path d="M83,968L212,1127L354,1025Z" fill="#8c8a5e" stroke="#8c8a5e" stroke-width="1.51"/><path d="M201,848L83,968L354,1025Z" fill="#9d986b" stroke="#9d986b" stroke-width="1.51"/><path d="M196,138L258,174L313,160Z" fill="#cc994b" stroke="#cc994b" stroke-width="1.51"/><path d="M222,460L31,575L337,637Z" fill="#dab48c" stroke="#dab48c" stroke-width="1.51"/><path d="M31,575L93,743L337,637Z" fill="#caad84" stroke="#caad84" stroke-width="1.51"/><path d="M93,743L260,788L337,637Z" fill="#c8b286" stroke="#c8b286" stroke-width="1.51"/><path d="M121,-113L196,138L325,-29Z" fill="#b47726" stroke="#b47726" stroke-width="1.51"/><path d="M76,484L31,575L222,460Z" fill="#d2aa81" stroke="#d2aa81" stroke-width="1.51"/><path d="M212,1127L84,1296L281,1253Z" fill="#736d42" stroke="#736d42" stroke-width="1.51"/><path d="M139,273L60,425L222,460Z" fill="#d4a972" stroke="#d4a972" stroke-width="1.51"/><path d="M196,138L139,273L258,174Z" fill="#ca9a4f" stroke="#ca9a4f" stroke-width="1.51"/><path d="M93,743L201,848L260,788Z" fill="#b7a87c" stroke="#b7a87c" stroke-width="1.51"/><path d="M45,372L60,425L139,273Z" fill="#cba068" stroke="#cba068" stroke-width="1.51"/><path d="M121,-113L-89,-13L196,138Z" fill="#a76a1e" stroke="#a76a1e" stroke-width="1.51"/><path d="M-89,-13L-72,137L196,138Z" fill="#ab7128" stroke="#ab7128" stroke-width="1.51"/><path d="M68,1144L84,1296L212,1127Z" fill="#706b42" stroke="#706b42" stroke-width="1.51"/><path d="M83,968L68,1144L212,1127Z" fill="#7e7b51" stroke="#7e7b51" stroke-width="1.51"/><path d="M60,425L76,484L222,460Z" fill="#d2a97b" stroke="#d2a97b" stroke-width="1.51"/><path d="M30,1103L68,1144L83,968Z" fill="#79764f" stroke="#79764f" stroke-width="1.51"/><path d="M31,575L11,659L93,743Z" fill="#bda17c" stroke="#bda17c" stroke-width="1.51"/><path d="M93,743L83,968L201,848Z" fill="#a69d71" stroke="#a69d71" stroke-width="1.51"/><path d="M-72,137L139,273L196,138Z" fill="#bd8c44" stroke="#bd8c44" stroke-width="1.51"/><path d="M68,1144L43,1281L84,1296Z" fill="#665e37" stroke="#665e37" stroke-width="1.51"/><path d="M-15,954L83,968L93,743Z" fill="#989167" stroke="#989167" stroke-width="1.51"/><path d="M-64,896L-15,954L93,743Z" fill="#988f67" stroke="#988f67" stroke-width="1.51"/><path d="M-72,137L-74,207L139,273Z" fill="#b68744" stroke="#b68744" stroke-width="1.51"/><path d="M-43,-259L121,-113L160,-211Z" fill="#87510f" stroke="#87510f" stroke-width="1.51"/><path d="M-74,207L45,372L139,273Z" fill="#c19456" stroke="#c19456" stroke-width="1.51"/><path d="M-43,-259L-89,-13L121,-113Z" fill="#8a4f0a" stroke="#8a4f0a" stroke-width="1.51"/><path d="M-15,954L30,1103L83,968Z" fill="#807c55" stroke="#807c55" stroke-width="1.51"/><path d="M11,659L-64,896L93,743Z" fill="#aa9872" stroke="#aa9872" stroke-width="1.51"/><path d="M30,1103L43,1281L68,1144Z" fill="#6b653f" stroke="#6b653f" stroke-width="1.51"/><path d="M60,425L31,575L76,484Z" fill="#cca47b" stroke="#cca47b" stroke-width="1.51"/><path d="M30,1103L-196,1236L43,1281Z" fill="#5e5937" stroke="#5e5937" stroke-width="1.51"/><path d="M-128,602L31,575L60,425Z" fill="#c59e7c" stroke="#c59e7c" stroke-width="1.51"/><path d="M-184,-135L-89,-13L-43,-259Z" fill="#7c4809" stroke="#7c4809" stroke-width="1.51"/><path d="M45,372L-228,416L60,425Z" fill="#bf9769" stroke="#bf9769" stroke-width="1.51"/><path d="M-228,416L-128,602L60,425Z" fill="#b99572" stroke="#b99572" stroke-width="1.51"/><path d="M-231,703L-64,896L11,659Z" fill="#9e906e" stroke="#9e906e" stroke-width="1.51"/><path d="M-74,207L-132,234L45,372Z" fill="#b58a50" stroke="#b58a50" stroke-width="1.51"/><path d="M-132,234L-228,416L45,372Z" fill="#b48d5c" stroke="#b48d5c" stroke-width="1.51"/><path d="M-128,602L-231,703L11,659Z" fill="#aa9375" stroke="#aa9375" stroke-width="1.51"/><path d="M-231,1144L-196,1236L30,1103Z" fill="#58593a" stroke="#58593a" stroke-width="1.51"/><path d="M-15,954L-206,1009L30,1103Z" fill="#737250" stroke="#737250" stroke-width="1.51"/><path d="M-128,602L11,659L31,575Z" fill="#bb9b7a" stroke="#bb9b7a" stroke-width="1.51"/><path d="M-206,1009L-231,1144L30,1103Z" fill="#616445" stroke="#616445" stroke-width="1.51"/><path d="M-231,703L-151,900L-64,896Z" fill="#8a8565" stroke="#8a8565" stroke-width="1.51"/><path d="M-64,896L-151,900L-15,954Z" fill="#84815e" stroke="#84815e" stroke-width="1.51"/><path d="M-151,900L-206,1009L-15,954Z" fill="#767857" stroke="#767857" stroke-width="1.51"/><path d="M-89,-13L-206,42L-72,137Z" fill="#97621d" stroke="#97621d" stroke-width="1.51"/><path d="M-160,-285L-184,-135L-43,-259Z" fill="#6a3d07" stroke="#6a3d07" stroke-width="1.51"/><path d="M-132,234L-74,207L-72,137Z" fill="#a97d3e" stroke="#a97d3e" stroke-width="1.51"/><path d="M-206,42L-132,234L-72,137Z" fill="#9e7031" stroke="#9e7031" stroke-width="1.51"/><path d="M-184,-135L-206,42L-89,-13Z" fill="#855112" stroke="#855112" stroke-width="1.51"/><path d="M-228,416L-231,703L-128,602Z" fill="#a98f76" stroke="#a98f76" stroke-width="1.51"/><path d="M-206,42L-228,416L-132,234Z" fill="#a07c44" stroke="#a07c44" stroke-width="1.51"/><path d="M-231,703L-206,1009L-151,900Z" fill="#7c7e60" stroke="#7c7e60" stroke-width="1.51"/><path d="M-231,703L-231,1144L-206,1009Z" fill="#6a7054" stroke="#6a7054" stroke-width="1.51"/></svg>